X Lossless Decoder version 20110502 (132.0)

XLD extraction logfile from 2011-05-03 17:07:14 +0900

SUEMITSU & THE SUEMITH / Shock On The Piano (special disc)

Used drive : MATSHITA DVD-R   UJ-868 (revision KB19)

Ripper mode             : CDParanoia III 10.2
Disable audio cache     : OK for the drive with a cache less than 2750KiB
Make use of C2 pointers : NO
Read offset correction  : 102
Max retry count         : 100
Gap status              : Analyzed, Appended

TOC of the extracted CD
     Track |   Start  |  Length  | Start sector | End sector 
    ---------------------------------------------------------
        1  | 00:00:00 | 05:59:00 |         0    |    26924   
        2  | 05:59:00 | 04:56:00 |     26925    |    49124   
        3  | 10:55:00 | 04:01:00 |     49125    |    67199   
        4  | 14:56:00 | 04:23:15 |     67200    |    86939   

AccurateRip Summary
    Track 01 : OK (confidence 2)
    Track 02 : OK (confidence 2)
    Track 03 : OK (confidence 2)
    Track 04 : OK (confidence 2)
        ->All tracks accurately ripped.

All Tracks
    Filename : /Users/m4c/Public/flac/Shock On The Piano (special disc).flac
    CRC32 hash             : 7F44EF3B
    CRC32 hash (skip zero) : EC590C4D
    Statistics
        Read error                           : 0
        Skipped (treated as error)           : 0
        Edge jitter error (maybe fixed)      : 0
        Atom jitter error (maybe fixed)      : 0
        Drift error (maybe fixed)            : 0
        Dropped bytes error (maybe fixed)    : 0
        Duplicated bytes error (maybe fixed) : 0

Track 01
    Pre-gap length : 00:02:00

    CRC32 hash             : 69ED82A7
    CRC32 hash (skip zero) : 3C97D4B3
    AccurateRip signature  : 9447ED6B
        ->Accurately ripped! (confidence 2)
    Statistics
        Read error                           : 0
        Skipped (treated as error)           : 0
        Edge jitter error (maybe fixed)      : 0
        Atom jitter error (maybe fixed)      : 0
        Drift error (maybe fixed)            : 0
        Dropped bytes error (maybe fixed)    : 0
        Duplicated bytes error (maybe fixed) : 0

Track 02
    Pre-gap length : 00:01:45

    CRC32 hash             : 7F772DC4
    CRC32 hash (skip zero) : D13092E7
    AccurateRip signature  : 7647B4CF
        ->Accurately ripped! (confidence 2)
    Statistics
        Read error                           : 0
        Skipped (treated as error)           : 0
        Edge jitter error (maybe fixed)      : 0
        Atom jitter error (maybe fixed)      : 0
        Drift error (maybe fixed)            : 0
        Dropped bytes error (maybe fixed)    : 0
        Duplicated bytes error (maybe fixed) : 0

Track 03
    Pre-gap length : 00:02:45

    CRC32 hash             : FA45DCCB
    CRC32 hash (skip zero) : A72C3265
    AccurateRip signature  : 7C258C48
        ->Accurately ripped! (confidence 2)
    Statistics
        Read error                           : 0
        Skipped (treated as error)           : 0
        Edge jitter error (maybe fixed)      : 0
        Atom jitter error (maybe fixed)      : 0
        Drift error (maybe fixed)            : 0
        Dropped bytes error (maybe fixed)    : 0
        Duplicated bytes error (maybe fixed) : 0

Track 04
    Pre-gap length : 00:02:45

    CRC32 hash             : 2AA66A29
    CRC32 hash (skip zero) : 995CB791
    AccurateRip signature  : C3A2DB6F
        ->Accurately ripped! (confidence 2)
    Statistics
        Read error                           : 0
        Skipped (treated as error)           : 0
        Edge jitter error (maybe fixed)      : 0
        Atom jitter error (maybe fixed)      : 0
        Drift error (maybe fixed)            : 0
        Dropped bytes error (maybe fixed)    : 0
        Duplicated bytes error (maybe fixed) : 0

No errors occurred

End of status report
